<svg width="259" height="212" viewBox="0 0 259 212" fill="none" xmlns="http://www.w3.org/2000/svg">
<path d="M18.5541 208.921C18.5541 208.921 -13.6925 175.891 6.84172 137.051C27.376 98.2101 54.939 117.757 53.6206 72.5434C52.3021 27.3301 117.034 23.466 137.634 36.5829C158.234 49.6997 158.104 65.4898 200.641 60.2785C243.178 55.0672 251.29 98.6218 240.216 120.812C224.504 152.298 283.783 147.125 246.41 208.998L18.5541 208.921Z" fill="#EBF3FA"/>
<g clip-path="url(#clip0_4532_14578)">
<path d="M26.7458 161.608C20.991 143.27 50.5068 131.306 50.5068 131.306C50.5068 131.306 85.9061 147.224 91.5352 144.546C97.1644 141.868 63.9269 125.03 63.9269 125.03C73.4033 117.601 107.053 113.545 107.053 113.545C107.053 113.545 125.818 146.505 130.615 142.525C135.412 138.545 112.504 114.199 112.504 114.199C124.15 110.891 140.547 116.466 140.547 116.466C163.815 127.749 154.861 168.313 169.826 176.647C169.826 176.647 172.87 178.005 176.986 180.989L174.322 182.692C173.646 182.108 172.965 181.572 172.277 181.086L172.245 181.065C171.801 180.773 171.164 180.353 170.381 179.848C168.547 178.776 167.247 177.95 166.356 177.322C160.721 173.879 149.752 169.183 149.828 169.729C151.508 182.412 129.742 198.604 115.358 204.111C100.974 209.619 104.237 202.499 107.362 192.317C110.488 182.134 125.804 174.504 128.585 169.539C131.366 164.575 123.715 166.228 115.661 172.287C107.608 178.347 108.779 189.516 95.9287 199.562C83.0783 209.607 56.2003 190.527 56.2003 190.527C67.5229 187.425 81.1357 171.397 79.7043 167.723C78.273 164.05 53.396 180.397 48.8622 181.915C44.3285 183.434 32.4977 179.947 26.7458 161.608Z" fill="#DFEBFD"/>
<path opacity="0.5" d="M136.736 114.645C136.736 114.645 126.156 76.9256 102.882 57.0568C99.7889 54.4287 95.0799 57.1386 95.7897 61.1451C95.7897 61.2122 95.8161 61.2794 95.8278 61.3465C97.1511 68.1476 123.717 93.6348 136.736 114.645Z" fill="#C5DDFF"/>
<path opacity="0.5" d="M140.844 125.266C140.844 125.266 113.729 80.2952 76.8694 64.2577C74.623 63.2794 71.9268 64.1818 70.8693 66.3894C70.177 67.8261 70.0922 69.9199 71.5879 72.9306C75.5899 80.9639 117.422 103.584 140.844 125.266Z" fill="#C5DDFF"/>
</g>
<g clip-path="url(#clip1_4532_14578)">
<path d="M182.6 194.334H117.255V196.085C117.255 198.19 118.083 200.209 119.558 201.698C121.033 203.187 123.034 204.023 125.12 204.023H174.095C176.35 204.023 178.514 203.119 180.109 201.509C181.704 199.899 182.6 197.716 182.6 195.439V194.334Z" fill="#163560"/>
<path d="M115 112.841V191.563C115 192.488 115.102 193.411 115.305 194.314H124.451C126.357 194.314 128.185 195.078 129.533 196.438C130.881 197.799 131.638 199.644 131.638 201.567V204.021H167.471V201.567C167.47 200.367 167.764 199.186 168.326 198.129C168.888 197.071 169.701 196.172 170.693 195.51C171.865 194.729 173.239 194.314 174.643 194.314H184.533C184.735 193.411 184.837 192.488 184.838 191.563V112.841C184.839 111.204 184.52 109.583 183.9 108.071C183.279 106.558 182.37 105.184 181.224 104.026C180.077 102.868 178.716 101.95 177.218 101.323C175.72 100.696 174.114 100.373 172.492 100.373H127.338C125.717 100.374 124.112 100.697 122.614 101.324C121.117 101.951 119.757 102.87 118.611 104.028C117.465 105.186 116.556 106.56 115.937 108.072C115.317 109.584 114.999 111.205 115 112.841Z" fill="#FFE500"/>
<path d="M136.773 100.331C152.945 93.8961 164.23 100.229 164.342 100.294L164.924 99.2685C164.805 99.1984 161.92 97.5502 156.937 96.7124C152.36 95.9445 145.072 95.7594 136.341 99.2309L136.773 100.331Z" fill="#163560"/>
<path d="M173.457 200.387H178.188V206.89H173.457V200.387Z" fill="#163560"/>
<path d="M179.186 207.878C179.185 207.207 178.987 206.55 178.617 205.992C178.247 205.434 177.721 204.999 177.106 204.742C176.491 204.486 175.815 204.419 175.162 204.55C174.51 204.681 173.91 205.005 173.44 205.48C172.969 205.955 172.649 206.56 172.519 207.219C172.39 207.878 172.457 208.561 172.711 209.181C172.966 209.802 173.398 210.332 173.951 210.705C174.504 211.078 175.155 211.277 175.82 211.277C176.713 211.277 177.569 210.918 178.2 210.281C178.831 209.644 179.186 208.779 179.186 207.878Z" fill="#1F4777"/>
<path d="M177.861 207.878C177.861 207.47 177.741 207.071 177.517 206.731C177.292 206.392 176.972 206.127 176.599 205.971C176.225 205.815 175.814 205.774 175.417 205.854C175.021 205.934 174.656 206.131 174.37 206.42C174.085 206.709 173.89 207.076 173.811 207.477C173.733 207.877 173.774 208.292 173.929 208.669C174.084 209.046 174.346 209.368 174.683 209.595C175.019 209.821 175.415 209.942 175.819 209.941C176.361 209.941 176.881 209.723 177.263 209.336C177.646 208.949 177.861 208.425 177.861 207.878Z" fill="#163560"/>
<path d="M124.803 200.387H129.533V206.89H124.803V200.387Z" fill="#163560"/>
<path d="M130.533 207.878C130.533 207.207 130.335 206.55 129.965 205.992C129.595 205.434 129.069 204.999 128.454 204.742C127.839 204.486 127.163 204.419 126.51 204.55C125.857 204.681 125.258 205.005 124.787 205.48C124.317 205.955 123.997 206.56 123.867 207.219C123.738 207.878 123.804 208.561 124.059 209.181C124.314 209.802 124.745 210.332 125.299 210.705C125.852 211.078 126.502 211.277 127.168 211.277C128.061 211.277 128.917 210.918 129.548 210.281C130.179 209.644 130.533 208.779 130.533 207.878Z" fill="#1F4777"/>
<path d="M129.213 207.878C129.213 207.47 129.093 207.071 128.868 206.732C128.644 206.392 128.324 206.128 127.951 205.972C127.577 205.815 127.166 205.774 126.77 205.854C126.373 205.934 126.009 206.13 125.723 206.419C125.437 206.707 125.242 207.075 125.163 207.475C125.084 207.876 125.125 208.29 125.28 208.668C125.434 209.045 125.696 209.367 126.033 209.594C126.369 209.82 126.764 209.941 127.168 209.941C127.71 209.941 128.23 209.723 128.613 209.336C128.997 208.949 129.212 208.425 129.213 207.878Z" fill="#163560"/>
<path d="M170.697 100.374V195.523C171.254 195.152 171.859 194.861 172.496 194.66V100.369L170.697 100.374Z" fill="#FFB742"/>
<path d="M156.295 100.373H158.094V204.033H156.295V100.373Z" fill="#FFB742"/>
<path d="M142.853 100.373H144.652V204.033H142.853V100.373Z" fill="#FFB742"/>
<path d="M128.312 100.373V195.465C129.001 195.908 129.61 196.467 130.111 197.118V100.373H128.312Z" fill="#FFB742"/>
<path d="M223.852 59.6169C223.852 59.4793 221.882 55.365 222.509 55.0549C223.136 54.7447 224.259 54.7848 224.388 55.5051C224.517 56.2254 223.852 59.6169 223.852 59.6169Z" fill="#FFB27D"/>
<path d="M223.11 62.067C223.11 61.6644 223.571 55.5117 224.597 54.2861C225.623 53.0606 227.724 51.3173 228.386 51.3724C229.047 51.4274 231.63 54.8889 230.851 57.545C230.073 60.2012 226.8 63.7978 226.8 63.7978L223.11 62.067Z" fill="#FFB27D"/>
<path d="M219.19 54.6118L225.177 56.4226C225.272 56.4516 225.375 56.4416 225.462 56.3947C225.55 56.3479 225.616 56.268 225.646 56.1725L229.068 44.6475C229.097 44.552 229.087 44.4489 229.04 44.3608C228.994 44.2727 228.915 44.2067 228.82 44.1773L222.833 42.3665C222.786 42.3518 222.737 42.3466 222.688 42.3513C222.639 42.3559 222.591 42.3702 222.547 42.3934C222.504 42.4167 222.465 42.4484 222.434 42.4867C222.403 42.5249 222.379 42.5691 222.365 42.6166L218.942 54.1416C218.928 54.1889 218.923 54.2386 218.927 54.2879C218.932 54.3372 218.946 54.3851 218.969 54.4288C218.992 54.4725 219.024 54.5112 219.062 54.5426C219.1 54.574 219.143 54.5975 219.19 54.6118Z" fill="#F1A34F"/>
<path d="M220.743 55.0809L226.175 56.7242C226.344 56.7755 226.527 56.7569 226.682 56.6725C226.838 56.5881 226.954 56.4447 227.005 56.2739L230.259 45.3117C230.284 45.2273 230.293 45.1387 230.284 45.051C230.275 44.9633 230.249 44.8782 230.208 44.8006C230.166 44.723 230.11 44.6544 230.042 44.5988C229.975 44.5431 229.897 44.5015 229.813 44.4763L224.381 42.8331C224.297 42.8077 224.209 42.7992 224.123 42.8081C224.036 42.817 223.951 42.8431 223.875 42.8849C223.798 42.9267 223.73 42.9834 223.675 43.0518C223.619 43.1202 223.578 43.1988 223.553 43.2833L220.297 54.2456C220.272 54.33 220.263 54.4186 220.272 54.5063C220.281 54.594 220.307 54.679 220.348 54.7566C220.39 54.8342 220.446 54.9028 220.514 54.9585C220.581 55.0141 220.659 55.0557 220.743 55.0809Z" fill="#D86713"/>
<path d="M229.006 51.8195C229.006 51.8195 226.513 47.9478 225.903 48.1629C225.033 48.4706 228.163 53.3827 228.163 53.3827C228.163 53.3827 225.844 49.7111 225.482 49.9887C224.657 50.6165 225.978 52.925 227.274 54.6933C227.274 54.6933 224.942 52.5373 224.865 52.925C224.6 54.2856 227.427 57.5795 227.427 57.5795L229.006 53.9379V51.8195Z" fill="#FFB27D"/>
<path d="M230.877 55.4138C230.756 54.9411 230.148 45.6945 229.886 46.5724C229.623 47.4503 229.003 52.2974 229.003 52.2974L230.877 55.4138Z" fill="#FFB27D"/>
<path d="M191.082 52.8681C191.082 52.8681 191.344 62.9225 194.217 71.0361C196.486 77.4439 200.385 82.6411 207.073 80.7228C207.757 80.5252 208.419 80.3151 209.055 80.0875C222.643 75.3104 227.039 64.3757 227.039 64.3757C226.028 62.6924 223.096 62.0722 223.096 62.0722C220.37 62.2197 208.337 67.3745 207.569 67.5295C204.788 68.0948 202.541 52.6705 200.734 47.3257C198.927 41.9809 191.528 39.5898 191.528 39.5898L191.082 52.8681Z" fill="#FDAE3B"/>
<path d="M193.955 63.7925L194.218 71.0457C196.488 77.4535 200.386 82.6507 207.074 80.7324C207.758 80.5348 208.42 80.3247 209.057 80.0971C208.844 80.1246 204.75 80.6824 203.037 78.9541C201.275 77.1758 201.459 71.2808 198.217 67.3516C194.976 63.4223 193.955 63.7925 193.955 63.7925Z" fill="#EE6A07"/>
<path d="M193.581 196.275C193.581 196.275 190.238 199.354 190.89 201.542C191.542 203.731 194.56 205.191 194.969 207.865C195.378 210.539 197.008 211.999 198.475 211.999H205.474C205.474 211.999 206.554 210.116 203.945 209.548C201.335 208.981 200.351 205.839 200.515 202.92C200.678 200.002 200.267 196.113 200.267 196.113L194.721 194.814L193.581 196.275Z" fill="#133054"/>
<path d="M230.426 211.44H209.818C209.43 211.44 209.057 211.287 208.779 211.014C208.502 210.74 208.341 210.368 208.331 209.977C208.299 208.759 208.398 206.976 209.074 205.492C210.175 203.029 210.871 202.599 206.225 195.436C207.62 196.889 211.387 196.223 214.566 195.793C214.955 196.431 220.853 205.625 222.154 206.568C223.576 207.611 229.982 207.251 230.426 211.44Z" fill="#163560"/>
<path d="M198.313 96.0979C198.313 96.0979 213.261 124.553 217.315 140.222C220.467 152.385 201.232 199.44 201.232 199.44C201.232 199.44 199.661 199.335 197.096 198.32C194.578 197.32 193.627 194.641 193.627 194.641C193.627 194.641 194.767 160.994 198.66 144.717C199.535 141.063 194.427 129.277 185.806 122.822C177.185 116.367 173.596 95.5977 178.728 94.1946C183.861 92.7914 198.313 96.0979 198.313 96.0979Z" fill="#163560"/>
<path d="M185.521 88.0176C185.521 88.0176 201.227 146.133 205.993 159.184C210.758 172.234 218.316 199.931 218.316 199.931C214.864 201.352 211.086 201.765 207.413 201.124C207.413 201.124 184.443 167.165 183.445 152.153C182.981 145.218 159.88 117.713 162.455 99.7777L185.521 88.0176Z" fill="#1C468A"/>
<path d="M162.5 106.152C162.5 106.152 165.84 107.852 171.75 108.353C178.518 108.925 188.651 107.92 200.992 100.984C200.992 100.984 204.434 98.1232 200.204 85.9479C197.005 76.7314 195.443 57.2979 191.531 39.5877C191.531 39.5877 178.857 35.5859 168.687 39.0449C160.919 41.6961 161.692 53.7314 160.262 66.2618C160.128 67.4324 159.974 68.6054 159.793 69.7634C157.677 83.4944 162.5 106.152 162.5 106.152Z" fill="#FDAE3B"/>
<path d="M196.012 13.3716C196.012 13.3716 187.361 -0.842065 180.66 6.47363C180.66 6.47363 176.281 7.60162 173.771 14.4771C171.211 21.4977 175.198 27.6979 177.86 26.6975C179.567 26.0547 180.367 29.0235 180.367 29.0235L196.012 13.3716Z" fill="#233862"/>
<path d="M181.988 5.35156C181.988 5.35156 181.391 -0.5335 172.874 0.0392496C172.874 0.0392496 176.901 0.111768 177.766 1.80751C177.766 1.80751 174.836 -0.0983019 172.7 0.829603C170.564 1.75751 169.657 5.79177 169.774 7.08233C169.89 8.37289 171.531 12.3796 172.965 12.5847C174.4 12.7898 176.284 11.7669 176.284 11.7669L181.988 5.35156Z" fill="#233862"/>
<path d="M177.695 38.6761C178.496 36.5227 179.678 34.2642 180.644 27.3887L181.155 27.5712L189.754 30.6276C189.754 30.6276 189.152 33.4113 188.763 36.0575C188.604 37.1404 188.493 39.0588 188.418 40.7595C188.344 42.4852 186.664 42.6478 184.949 42.5678C180.411 42.3627 177.906 40.652 177.695 38.6761Z" fill="#FFB27D"/>
<path d="M189.754 30.6364C189.754 30.6364 189.152 33.4201 188.763 36.0663C183.829 35.2059 181.861 30.2637 181.15 27.5801L189.754 30.6364Z" fill="#E8945B"/>
<path d="M180.379 26.4743C180.379 26.4743 178.374 21.9574 178.258 18.3258C178.174 15.7347 180.785 6.55316 189.92 9.25934C191.761 9.79494 193.459 10.7411 194.888 12.028C196.717 13.7038 199.213 17.1078 194.779 24.8061L193.54 27.4448L180.379 26.4743Z" fill="#233862"/>
<path d="M191.051 33.384C191.051 33.384 179.302 31.8833 180.348 24.5051C181.394 17.1269 180.579 11.9772 188.124 12.63C195.67 13.2827 196.723 16.3041 196.969 18.8502C197.214 21.3963 194.134 33.5866 191.051 33.384Z" fill="#FFB27D"/>
<path d="M193.486 13.2264C193.486 13.2264 189.043 21.405 183.936 21.9652C178.828 22.5255 176.883 20.8847 176.883 20.8847C179.62 19.0845 181.653 16.3799 182.632 13.2339C182.632 13.2339 191.653 8.76195 193.486 13.2264Z" fill="#233862"/>
<path d="M192.592 13.8141C192.592 13.8141 194.711 16.0926 195.028 18.066C195.345 20.0393 195.056 23.9285 196.191 23.9586C196.191 23.9586 199.447 18.4361 197.204 14.717C194.828 10.7603 192.592 13.8141 192.592 13.8141Z" fill="#233862"/>
<path d="M192.994 14.1653C192.994 14.1653 189.416 22.8866 182.789 24.88C182.789 24.88 189.797 20.223 191.178 14.3254C192.558 8.42783 192.994 14.1653 192.994 14.1653Z" fill="#233862"/>
<path d="M162.499 106.15C162.499 106.15 165.84 107.851 171.75 108.351C171.75 108.351 176.607 102.209 171.19 95.3232C165.773 88.4377 171.611 75.7372 167.441 68.8266C164.536 64.0195 161.711 65.1375 160.254 66.2605C160.12 67.431 159.967 68.604 159.786 69.762C157.677 83.493 162.499 106.15 162.499 106.15Z" fill="#EE6A07"/>
<path d="M141.188 95.9512C141.188 95.9512 140.467 97.6419 139.453 97.757C137.81 97.942 134.683 99.3301 134.192 99.6253C132.859 100.423 132.953 103.992 134.281 104.327C135.609 104.662 136.279 101.669 140.437 100.866C141.849 100.593 143.906 101.579 144.736 98.1671L141.188 95.9512Z" fill="#FFB27D"/>
<path d="M168.697 39.0452C156.601 43.5472 156.153 65.1616 150.761 74.6882C145.2 84.51 139.783 97.4482 139.783 97.4482C139.783 97.4482 139.882 97.8359 141.956 98.4336C142.925 98.6898 143.932 98.7744 144.93 98.6837C144.93 98.6837 156.359 88.2492 159.464 84.1324C162.569 80.0156 169.889 60.9198 169.889 60.9198C169.889 60.9198 173.5 37.2619 168.697 39.0452Z" fill="#FDAE3B"/>
<path d="M144.445 99C144.445 99 144.153 100.456 142.369 101.631C140.584 102.807 139.147 103.982 138.984 103.254C138.82 102.527 139.975 101.754 140.252 100.398C140.53 99.0425 144.445 99 144.445 99Z" fill="#FFB27D"/>
</g>
<defs>
<clipPath id="clip0_4532_14578">
<rect width="151" height="150" fill="white" transform="matrix(-1 0 0 1 177 56)"/>
</clipPath>
<clipPath id="clip1_4532_14578">
<rect width="116" height="212" fill="white" transform="matrix(-1 0 0 1 231 0)"/>
</clipPath>
</defs>
</svg>
