<svg width="37" height="21" viewBox="0 0 37 21" fill="none" xmlns="http://www.w3.org/2000/svg">
<path d="M19.8449 8.05859L14.1569 19.07C14.1052 19.1715 14.1052 19.2222 14.0535 19.3237C13.8467 20.0341 14.2604 20.6938 14.9326 20.9475C15.6565 21.1505 16.3287 20.7445 16.5872 20.0848L20 8.05859C20 8.00785 19.8966 7.95711 19.8449 8.05859ZM15.4497 20.3893C15.036 20.44 14.674 20.1863 14.6223 19.8311C14.5706 19.4252 14.8291 19.07 15.1911 19.0192C15.6048 18.9685 15.9667 19.2222 16.0184 19.5774C16.0702 19.9834 15.8116 20.3386 15.4497 20.3893Z" fill="#EE6A07"/>
<path d="M13.7583 5.48792C13.8039 5.71232 14.032 5.88062 14.2144 5.88062C14.6249 5.82452 15.081 5.82452 15.4915 5.82452C16.1756 5.82452 16.8142 5.88062 17.4527 5.99282C17.7263 6.04891 18 5.76842 18 5.43183V1.56099C18 1.2244 17.772 1 17.5439 1C16.0844 1.0561 14.6249 1.39269 13.3022 1.89759C13.0742 2.00978 12.9374 2.29028 13.0286 2.62687L13.7583 5.48792Z" fill="#EE6A07"/>
<path d="M19.2629 6.97434C20.154 7.21651 20.7482 7.45867 21.5969 7.943C21.8091 8.0883 22.1062 7.943 22.191 7.6524L23.9734 1.45299C24.0583 1.21082 23.931 0.920226 23.7188 0.82336C22.4457 0.387464 20.7906 0.0968658 19.4326 0C19.178 0 19.0082 0.193732 19.0082 0.484329V6.49001C18.9658 6.73218 19.0931 6.92591 19.2629 6.97434Z" fill="#62A594"/>
<path d="M33.4118 10.0797L29.2005 12.8657C29 13.0027 28.9499 13.2311 29.0501 13.4594C29.5013 14.1902 29.8523 14.9209 30.1531 15.6974C30.2533 15.9257 30.504 16.0627 30.7547 15.9714L35.6678 14.5099C35.9185 14.4185 36.0689 14.1902 35.9686 13.9161C35.4673 12.5916 34.8155 11.3128 34.0635 10.171C33.9632 9.98832 33.6123 9.94265 33.4118 10.0797Z" fill="#EE6A07"/>
<path d="M9.47659 6.95682C10.483 6.48179 11.5332 6.09313 12.6272 5.87721C12.8897 5.83403 13.0648 5.57492 12.9772 5.31582L12.3209 3.28616C12.2333 3.07024 11.9708 2.94068 11.752 3.02705C10.483 3.54526 9.2578 4.19303 8.16385 5.01353C7.98881 5.14308 7.94505 5.40218 8.07633 5.61811L8.95149 6.82726C9.03901 7 9.30155 7.04318 9.47659 6.95682Z" fill="#EE6A07"/>
<path d="M24.3388 3.35268L23.017 7.5702C22.9698 7.76636 23.017 8.01157 23.2058 8.10965C24.0083 8.60006 24.8108 9.18855 25.5189 9.87512C25.7077 10.0713 26.0381 10.0222 26.227 9.82608L28.9177 5.95185C29.0593 5.75569 29.0121 5.4124 28.8232 5.26528C27.6431 4.3335 26.3214 3.59789 24.9524 3.0094C24.7164 2.96036 24.4332 3.10748 24.3388 3.35268Z" fill="#EE6A07"/>
<path d="M26.1582 10.6682C26.8134 11.3387 27.4182 12.0092 27.9223 12.7755C28.0735 13.015 28.3759 13.0629 28.6279 12.9192L32.8113 10.0455C33.0129 9.90185 33.0633 9.61448 32.9121 9.37501C32.0048 8.17766 30.9464 7.07609 29.7871 6.11821C29.5855 5.92664 29.2327 5.97453 29.0311 6.214L26.1078 10.0934C25.9566 10.2371 25.9566 10.5245 26.1582 10.6682Z" fill="#EE6A07"/>
<path d="M5.29 9.85378C6.02147 9.02916 6.87486 8.32823 7.80951 7.751C8.0127 7.62731 8.05334 7.33869 7.93142 7.17377L7.19995 6.18423C7.07804 5.97807 6.79358 5.93684 6.59039 6.10177C5.65574 6.92638 4.80236 7.87469 4.07089 8.90547C3.94897 9.07039 3.98961 9.35901 4.15216 9.4827L4.72108 9.89501C4.92427 10.0599 5.12745 10.0187 5.29 9.85378Z" fill="#EE6A07"/>
<path d="M1.31423 14.8704L1.5327 14.9691C1.75116 15.0678 1.96963 14.9197 2.05702 14.673C2.53765 13.3898 3.14936 12.2054 3.89216 11.169C4.06693 10.9716 4.02324 10.6261 3.80477 10.4781L3.28044 10.0833C3.06198 9.93523 2.79981 9.98458 2.66873 10.2313C1.96963 11.4651 1.40162 12.847 1.00837 14.2782C0.964678 14.5249 1.09576 14.821 1.31423 14.8704Z" fill="#EE6A07"/>
<path d="M31.0112 17.0924C31.1941 17.8896 31.3312 18.7338 31.4227 19.5779C31.4227 19.8124 31.6512 20 31.8798 20H36.5428C36.8171 20 37 19.7655 37 19.531C36.9543 18.0772 36.7714 16.7172 36.4057 15.3572C36.36 15.0758 36.0857 14.9351 35.8114 15.0289L31.3312 16.5296C31.0569 16.6234 30.9655 16.8579 31.0112 17.0924Z" fill="#EE6A07"/>
<path d="M1.01048 20C1.06662 18.4993 1.40345 17.0455 1.96483 15.6855C2.07711 15.451 1.90869 15.1696 1.628 15.0758L1.45959 15.0289C1.1789 14.9351 0.842071 15.0758 0.729795 15.3572C0.28069 16.8579 0 18.4055 0 20H1.01048Z" fill="#EE6A07"/>
</svg>
