<svg width="220" height="16" viewBox="0 0 220 16" fill="none" xmlns="http://www.w3.org/2000/svg">
<path d="M10.2476 0.283012H0V15.7193H3.18727V9.84882H8.97288V6.9956H3.18727V3.13624H10.2476V0.283012ZM15.8197 0.283012H12.6325V15.7193H15.8197V0.283012ZM29.468 0.283012V9.49765L20.424 0.0023103H19.3849V15.7193H22.5721V6.4573L31.5917 16H32.6541V0.283012H29.4668H29.468ZM46.2802 15.7193H49.7042L42.7617 0.0023103H41.6993L34.7335 15.7193H38.1575L39.031 13.7082H45.4067L46.2802 15.7193ZM44.2965 11.1114H40.14L42.2183 5.89589L44.2965 11.1114ZM61.9122 0.281857V9.4965L52.8682 0.00115512H51.8291V15.7181H55.0163V6.45614L64.037 15.9988H65.0994V0.281857H61.9122ZM76.0794 0.00115512C71.4273 0.00115512 67.7677 3.46314 67.7677 8.00058C67.7677 12.538 71.4273 16 76.0561 16C79.0789 16 81.6049 14.526 82.9507 12.1637L80.5425 10.4795C79.5034 12.1164 78.0398 13.0752 76.0794 13.0752C73.1755 13.0752 71.0495 10.9936 71.0495 8.02368C71.0495 5.02953 73.1743 2.92484 76.0794 2.92484C78.0398 2.92484 79.5034 3.88362 80.5425 5.52047L82.9507 3.83626C81.5816 1.47397 79.0777 0 76.0794 0V0.00115512ZM88.8541 0.281857H85.6669V15.7181H88.8541V0.281857ZM102.479 15.7181H105.903L98.9606 0.00115512H97.8982L90.9323 15.7181H94.3563L95.2298 13.707H101.606L102.479 15.7181ZM100.495 11.1102H96.3389L98.4171 5.89474L100.495 11.1102ZM111.215 0.280702H108.028V15.717H118.04V12.8638H111.215V0.280702ZM136.316 0.280702H125.831V15.717H136.599V12.8638H129.02V8.9582H134.38V6.26901H129.02V3.13508H136.316V0.281857V0.280702ZM151.735 15.717L146.611 7.85849L151.404 0.280702H147.791L144.816 5.1462L141.818 0.280702H138.182L143.046 7.85849L137.875 15.717H141.511L144.816 10.595L148.122 15.717H151.735ZM159.717 0.280702H153.861V15.717H157.049V10.267H159.717C162.999 10.267 165.337 8.23276 165.337 5.26171C165.337 2.24446 162.999 0.279547 159.717 0.279547V0.280702ZM159.717 3.06346C161.205 3.06346 162.079 3.97603 162.079 5.26171C162.079 6.59476 161.205 7.50733 159.717 7.50733H157.049V3.06346H159.717ZM181.039 15.717L176.624 9.65938C178.301 8.84037 179.363 7.24973 179.363 5.26171C179.363 2.24446 177.026 0.279547 173.743 0.279547H167.888V15.7158H171.075V10.2658H173.413L177.451 15.7158H181.04L181.039 15.717ZM171.074 3.06346H173.742C175.23 3.06346 176.104 3.97603 176.104 5.26171C176.104 6.59476 175.23 7.48423 173.742 7.48423H171.074V3.06346ZM193.483 0.280702H182.998V15.717H193.766V12.8638H186.187V8.9582H191.547V6.26901H186.187V3.13508H193.483V0.281857V0.280702ZM201.416 0C198.488 0 196.245 1.70731 196.245 4.3734C196.245 6.54855 197.803 7.81113 200.023 8.81727L201.7 9.56581C202.928 10.1272 203.683 10.4784 203.683 11.4845C203.683 12.56 202.833 13.1918 201.464 13.1918C199.599 13.1918 198.489 12.1152 197.639 10.9462L195.443 12.5831C196.6 14.6415 198.773 15.9977 201.464 15.9977C204.557 15.9977 206.919 14.243 206.919 11.3667C206.919 9.16844 205.525 7.92896 203.07 6.85236L201.3 6.08072C200.166 5.56667 199.482 5.1924 199.482 4.30294C199.482 3.2737 200.378 2.80586 201.417 2.80586C202.692 2.80586 203.637 3.46083 204.393 4.58364L206.565 2.92369C205.644 1.23948 203.897 0 201.417 0H201.416ZM214.498 0C211.569 0 209.327 1.70731 209.327 4.3734C209.327 6.54855 210.885 7.81113 213.104 8.81727L214.781 9.56581C216.009 10.1272 216.765 10.4784 216.765 11.4845C216.765 12.56 215.915 13.1918 214.546 13.1918C212.68 13.1918 211.571 12.1152 210.72 10.9462L208.524 12.5831C209.681 14.6415 211.854 15.9977 214.546 15.9977C217.638 15.9977 220 14.243 220 11.3667C220 9.16844 218.606 7.92896 216.151 6.85236L214.38 6.08072C213.246 5.56667 212.562 5.1924 212.562 4.30294C212.562 3.2737 213.459 2.80586 214.498 2.80586C215.772 2.80586 216.717 3.46083 217.473 4.58364L219.645 2.92369C218.724 1.23948 216.977 0 214.498 0Z" fill="black"/>
</svg>
