<svg width="100" height="100" viewBox="0 0 100 100" fill="none" xmlns="http://www.w3.org/2000/svg">
<circle cx="50" cy="50" r="50" fill="#ffe700"/>
<path d="M66.5201 61.9256C64.0865 61.9256 61.9236 62.872 60.2336 64.3592L41.9817 54.2867C42.5225 53.0702 42.8606 51.7856 42.8606 50.4333C42.8606 49.0135 42.5225 47.7295 41.9817 46.5799L60.9772 35.9665C62.5319 37.1156 64.4247 37.7918 66.5206 37.7918C71.7259 37.7918 75.917 33.6007 75.917 28.3954C75.9165 23.1911 71.7254 19 66.5201 19C61.3148 19 57.1238 23.1911 57.1238 28.3964C57.1238 30.2892 57.6646 31.9792 58.611 33.4664L40.021 43.6738C38.331 41.9838 35.9648 40.97 33.3964 40.97C28.1911 40.97 24 45.1611 24 50.3664C24 55.5717 28.1911 59.7628 33.3964 59.7628C35.9653 59.7628 38.331 58.749 40.021 57.059L58.1378 67.0637C57.4616 68.3482 57.0561 69.8354 57.0561 71.3901C57.0561 76.5954 61.2471 80.7864 66.4524 80.7864C71.6577 80.7864 75.8488 76.5954 75.8488 71.3901C75.9167 66.1173 71.6582 61.9259 66.5204 61.9259L66.5201 61.9256Z" fill="white"/>
</svg>
