<svg width="700" height="700" viewBox="0 0 700 700" fill="none" xmlns="http://www.w3.org/2000/svg">
<path fill-rule="evenodd" clip-rule="evenodd" d="M333.81 53.586C337.099 47.7383 343.294 44.1368 350.001 44.1368C356.708 44.1368 362.903 47.7384 366.192 53.586L434.981 175.566C436.649 178.519 439.508 180.609 442.833 181.273L580.103 209.003C586.685 210.335 592.037 215.093 594.103 221.476C596.181 227.859 594.65 234.859 590.114 239.804L495.356 342.914C493.067 345.41 491.974 348.781 492.356 352.156L508.411 491.266C509.181 497.926 506.298 504.493 500.864 508.438C495.439 512.38 488.309 513.094 482.208 510.305L354.848 452.051C351.77 450.641 348.223 450.641 345.145 452.051L217.785 510.305C211.684 513.094 204.555 512.38 199.129 508.438C193.696 504.493 190.813 497.926 191.582 491.266L207.637 352.156C208.02 348.781 206.926 345.41 204.637 342.914L109.879 239.804C105.344 234.859 103.813 227.859 105.891 221.476C107.958 215.093 113.309 210.335 119.891 209.003L257.161 181.273C260.485 180.609 263.345 178.519 265.013 175.566L333.802 53.586H333.81Z" fill="#FFE700"/>
</svg>
